<svg width="408" height="408" viewBox="0 0 408 408" fill="none" xmlns="http://www.w3.org/2000/svg">
<path fill-rule="evenodd" clip-rule="evenodd" d="M408 0H0L408 408V0ZM176.384 60.7576C173.709 63.4317 171.711 66.3959 170.389 69.6503C169.083 72.9208 168.486 76.1432 168.598 79.3174C168.726 82.5077 169.45 85.6336 170.771 88.6953C172.124 91.757 174.024 94.5127 176.473 96.9623C178.438 98.9285 180.589 100.516 182.925 101.725C185.277 102.95 187.734 103.716 190.296 104.023C192.857 104.329 195.403 104.185 197.933 103.589C200.479 103.01 203.001 101.842 205.499 100.087C206.772 99.2009 207.997 98.17 209.173 96.994C210.285 95.8825 211.349 94.6421 212.364 93.2728L196.972 77.8738L190.469 84.3737L198.298 92.2061C196.928 93.0275 195.559 93.5751 194.189 93.8486C192.836 94.1061 191.555 94.0978 190.346 93.8236C189.138 93.5494 188.002 93.106 186.939 92.4935C185.892 91.8649 184.893 91.0752 183.942 90.1243C180.914 87.0945 179.416 83.6138 179.45 79.6824C179.499 75.7349 181.167 72.118 184.455 68.8318C187.71 65.5778 191.28 63.9755 195.163 64.0247C199.062 64.0901 202.502 65.6135 205.482 68.595C209.251 72.3662 210.668 76.7168 209.732 81.647L219.303 83.3894C219.9 81.0532 220.142 78.7653 220.029 76.5257C219.949 74.286 219.555 72.2316 218.847 70.3624C218.138 68.4932 217.285 66.8012 216.286 65.2864C215.287 63.7715 214.136 62.3614 212.831 61.056C210.366 58.5903 207.579 56.6722 204.47 55.302C201.393 53.9317 198.243 53.1817 195.02 53.0521C191.814 52.9063 188.575 53.4856 185.304 54.79C182.033 56.0943 179.06 58.0836 176.384 60.7576ZM234.503 83.7535L199.354 118.887L207.182 126.719L242.332 91.586L234.503 83.7535ZM239.549 103.161L246.728 95.9847L270.771 120.038L263.591 127.215L255.496 119.116L227.527 147.073L219.698 139.24L247.668 111.284L239.549 103.161ZM275.192 124.461L240.042 159.594L247.871 167.427L261.892 153.412L275.158 166.684L261.137 180.698L268.941 188.507L304.091 153.373L296.286 145.565L282.386 159.459L269.12 146.187L283.021 132.293L275.192 124.461ZM288.385 181.319L310.215 159.5L318.043 167.333L296.166 189.2C295.167 190.199 294.393 191.214 293.845 192.245C293.313 193.26 292.999 194.186 292.902 195.024C292.837 195.862 292.909 196.692 293.119 197.514C293.344 198.319 293.65 199.028 294.037 199.641C294.439 200.237 294.914 200.809 295.462 201.357C296.155 202.05 296.896 202.614 297.685 203.049C298.507 203.484 299.433 203.783 300.464 203.944C301.512 204.089 302.656 203.896 303.897 203.365C305.153 202.817 306.402 201.923 307.643 200.683L329.521 178.815L337.35 186.648L315.52 208.467C313.329 210.658 310.992 212.285 308.51 213.348C306.029 214.41 303.604 214.885 301.235 214.772C298.867 214.659 296.555 214.086 294.299 213.054C292.076 212.023 290.022 210.564 288.137 208.678C286.236 206.777 284.771 204.714 283.74 202.49C282.725 200.25 282.162 197.946 282.05 195.578C281.954 193.225 282.438 190.808 283.502 188.327C284.566 185.846 286.193 183.51 288.385 181.319ZM343.944 193.245L308.795 228.379L321.819 241.409C325.733 245.325 329.689 247.396 333.684 247.623C337.712 247.849 341.33 246.36 344.537 243.154C345.843 241.849 346.842 240.464 347.535 238.998C348.244 237.548 348.631 236.13 348.696 234.744C348.777 233.375 348.673 232.078 348.383 230.853C348.125 229.628 347.682 228.46 347.054 227.348C348.794 227.961 350.688 228.114 352.734 227.809C354.796 227.487 356.69 226.464 358.414 224.741C360.864 222.292 361.992 219.36 361.8 215.944C361.607 212.528 360.077 209.386 357.21 206.517L343.944 193.245ZM328.153 234.063L323.465 229.373L332.361 220.481L336.952 225.074C338.644 226.766 339.505 228.434 339.537 230.078C339.585 231.705 338.924 233.203 337.554 234.572C336.152 235.974 334.646 236.658 333.034 236.626C331.439 236.577 329.812 235.723 328.153 234.063ZM342.319 218.356L338.405 214.44L344.932 207.916L348.677 211.663C349.934 212.92 350.618 214.153 350.731 215.361C350.843 216.57 350.376 217.698 349.328 218.745C348.329 219.743 347.209 220.235 345.968 220.218C344.744 220.186 343.527 219.565 342.319 218.356Z" fill="url(#paint0_linear_173_88)"/>
<defs>
<linearGradient id="paint0_linear_173_88" x1="230.231" y1="22.2077" x2="229.744" y2="413.707" gradientUnits="userSpaceOnUse">
<stop stop-color="#FFF500"/>
<stop offset="0.442708" stop-color="#FF010B"/>
<stop offset="1" stop-color="#0139FF"/>
</linearGradient>
</defs>
</svg>
